<svg width="1080" height="1080" viewBox="0 0 1080 1080" fill="none" xmlns="http://www.w3.org/2000/svg">
<g clip-path="url(#clip0_2210_3935)">

<circle cx="59" cy="84" r="20" fill="#FD3333"/>
<circle cx="114" cy="84" r="20" fill="#FF9728"/>
<circle cx="169" cy="84" r="20" fill="#19FF14"/>
<path fill-rule="evenodd" clip-rule="evenodd" d="M211.6 101.776C214.069 103.259 217.057 104 220.565 104C224.008 104 226.882 103.308 229.189 101.924C229.929 101.48 230.61 100.975 231.233 100.408C231.664 100.017 232.336 100.017 232.767 100.408C233.39 100.975 234.071 101.48 234.811 101.924C237.118 103.308 239.992 104 243.435 104C246.943 104 249.931 103.259 252.4 101.776C254.868 100.26 256.752 98.1679 258.051 95.499C259.35 92.7971 260 89.6504 260 86.059C260 83.39 259.643 80.9683 258.928 78.7936C258.181 76.586 257.109 74.6914 255.713 73.1098C254.283 71.5282 252.546 70.3255 250.499 69.5018C248.453 68.6451 246.131 68.2168 243.532 68.2168C240.902 68.2168 238.139 68.888 236.06 69.7447C232.852 71.4769 233.26 64.0086 232 64C230.74 64.0086 231.148 71.4769 227.94 69.7447C225.861 68.888 223.098 68.2168 220.468 68.2168C217.869 68.2168 215.547 68.6451 213.501 69.5018C211.454 70.3255 209.717 71.5282 208.287 73.1098C206.891 74.6914 205.819 76.586 205.072 78.7936C204.357 80.9683 204 83.39 204 86.059C204 89.6504 204.65 92.7971 205.949 95.499C207.248 98.1679 209.132 100.26 211.6 101.776ZM228.825 80.2423C228.565 79.155 227.629 77.7063 226.947 77.0143C226.265 76.2894 225.405 75.7458 224.365 75.3833C223.358 75.0209 222.205 74.8396 220.906 74.8396C219.12 74.8396 217.609 75.1527 216.375 75.7787C215.141 76.4047 214.134 77.2614 213.354 78.3488C212.607 79.4032 212.055 80.6223 211.698 82.0062C211.373 83.3571 211.211 84.7574 211.211 86.2072C211.211 88.1842 211.535 90.0294 212.185 91.7428C212.835 93.4232 213.858 94.7906 215.254 95.845C216.651 96.8664 218.502 97.3771 220.809 97.3771C222.335 97.3771 223.683 97.1465 224.852 96.6852C226.054 96.1909 227.244 95.466 227.959 94.5105C228.187 94.2079 228.401 93.8213 228.579 93.437C228.752 93.0637 228.775 92.6361 228.591 92.2681C228.438 91.9628 228.253 91.6523 228.12 91.3367C227.994 91.0397 227.721 90.8013 227.398 90.8013H223.845C222.202 90.8013 220.87 89.4693 220.87 87.8261C220.87 86.183 222.202 84.851 223.845 84.851H240.155C241.798 84.851 243.13 86.183 243.13 87.8261C243.13 89.4693 241.798 90.8013 240.155 90.8013H236.602C236.279 90.8013 236.006 91.0397 235.88 91.3367C235.747 91.6523 235.562 91.9628 235.409 92.2681C235.225 92.6361 235.248 93.0637 235.421 93.437C235.599 93.8213 235.813 94.2079 236.041 94.5105C236.756 95.466 237.946 96.1909 239.148 96.6852C240.317 97.1465 241.665 97.3771 243.191 97.3771C245.498 97.3771 247.349 96.8664 248.746 95.845C250.142 94.7906 251.165 93.4232 251.815 91.7428C252.465 90.0294 252.789 88.1842 252.789 86.2072C252.789 84.7574 252.627 83.3571 252.302 82.0062C251.945 80.6223 251.393 79.4032 250.646 78.3488C249.866 77.2614 248.859 76.4047 247.625 75.7787C246.391 75.1527 244.88 74.8396 243.094 74.8396C241.795 74.8396 240.642 75.0209 239.635 75.3833C238.595 75.7458 237.735 76.2894 237.053 77.0143C236.371 77.7063 235.435 79.155 235.175 80.2423H228.825Z" fill="white"/>
<path d="M823.262 103.164L825.391 100.225L822.139 99.1797L822.451 98.1934L825.703 99.3848L825.664 95.7812H826.67L826.592 99.4141L829.766 98.1738L830.088 99.1797L826.826 100.293L829.004 103.164L828.174 103.779L826.084 100.801L824.092 103.76L823.262 103.164ZM833.184 99.4336V110H832.021V99.4336H833.184ZM831.816 96.377C831.816 96.1556 831.885 95.9701 832.021 95.8203C832.165 95.6641 832.36 95.5859 832.607 95.5859C832.855 95.5859 833.05 95.6641 833.193 95.8203C833.343 95.9701 833.418 96.1556 833.418 96.377C833.418 96.5918 833.343 96.7773 833.193 96.9336C833.05 97.0833 832.855 97.1582 832.607 97.1582C832.36 97.1582 832.165 97.0833 832.021 96.9336C831.885 96.7773 831.816 96.5918 831.816 96.377ZM837.48 101.621V110H836.309V99.4336H837.432L837.48 101.621ZM837.266 104.062L836.699 103.77C836.738 103.145 836.855 102.559 837.051 102.012C837.253 101.465 837.533 100.983 837.891 100.566C838.249 100.15 838.678 99.8242 839.18 99.5898C839.681 99.3555 840.251 99.2383 840.889 99.2383C841.403 99.2383 841.868 99.3099 842.285 99.4531C842.708 99.5898 843.066 99.8079 843.359 100.107C843.659 100.4 843.89 100.785 844.053 101.26C844.215 101.735 844.297 102.305 844.297 102.969V110H843.135V103.008C843.135 102.305 843.024 101.755 842.803 101.357C842.588 100.96 842.285 100.677 841.895 100.508C841.51 100.339 841.064 100.254 840.557 100.254C839.958 100.254 839.45 100.378 839.033 100.625C838.623 100.866 838.288 101.182 838.027 101.572C837.773 101.956 837.585 102.37 837.461 102.812C837.337 103.249 837.272 103.665 837.266 104.062ZM844.287 103.145L843.506 103.164C843.538 102.65 843.656 102.158 843.857 101.689C844.066 101.221 844.349 100.804 844.707 100.439C845.065 100.068 845.492 99.7754 845.986 99.5605C846.488 99.3457 847.051 99.2383 847.676 99.2383C848.223 99.2383 848.711 99.3132 849.141 99.4629C849.57 99.6061 849.932 99.8372 850.225 100.156C850.524 100.469 850.752 100.869 850.908 101.357C851.064 101.846 851.143 102.432 851.143 103.115V110H849.971V103.105C849.971 102.357 849.86 101.777 849.639 101.367C849.424 100.951 849.124 100.661 848.74 100.498C848.356 100.335 847.907 100.254 847.393 100.254C846.885 100.26 846.439 100.355 846.055 100.537C845.671 100.713 845.348 100.947 845.088 101.24C844.834 101.527 844.639 101.836 844.502 102.168C844.372 102.5 844.3 102.826 844.287 103.145ZM860.537 108.105V102.656C860.537 102.155 860.433 101.722 860.225 101.357C860.016 100.993 859.71 100.713 859.307 100.518C858.903 100.322 858.405 100.225 857.812 100.225C857.266 100.225 856.777 100.322 856.348 100.518C855.924 100.706 855.589 100.964 855.342 101.289C855.101 101.608 854.98 101.963 854.98 102.354L853.809 102.344C853.809 101.947 853.906 101.562 854.102 101.191C854.297 100.82 854.574 100.488 854.932 100.195C855.29 99.9023 855.716 99.6712 856.211 99.502C856.712 99.3262 857.262 99.2383 857.861 99.2383C858.617 99.2383 859.281 99.3652 859.854 99.6191C860.433 99.873 860.885 100.254 861.211 100.762C861.536 101.27 861.699 101.908 861.699 102.676V107.783C861.699 108.148 861.725 108.525 861.777 108.916C861.836 109.307 861.917 109.629 862.021 109.883V110H860.781C860.703 109.766 860.641 109.473 860.596 109.121C860.557 108.763 860.537 108.424 860.537 108.105ZM860.811 103.848L860.83 104.746H858.535C857.936 104.746 857.399 104.801 856.924 104.912C856.455 105.016 856.058 105.173 855.732 105.381C855.407 105.583 855.156 105.827 854.98 106.113C854.811 106.4 854.727 106.725 854.727 107.09C854.727 107.467 854.821 107.812 855.01 108.125C855.205 108.438 855.479 108.688 855.83 108.877C856.188 109.059 856.611 109.15 857.1 109.15C857.751 109.15 858.324 109.03 858.818 108.789C859.32 108.548 859.733 108.232 860.059 107.842C860.384 107.451 860.602 107.025 860.713 106.562L861.221 107.236C861.136 107.562 860.98 107.897 860.752 108.242C860.531 108.581 860.241 108.9 859.883 109.199C859.525 109.492 859.102 109.733 858.613 109.922C858.132 110.104 857.585 110.195 856.973 110.195C856.283 110.195 855.68 110.065 855.166 109.805C854.658 109.544 854.261 109.189 853.975 108.74C853.695 108.285 853.555 107.77 853.555 107.197C853.555 106.676 853.665 106.211 853.887 105.801C854.108 105.384 854.427 105.033 854.844 104.746C855.267 104.453 855.775 104.232 856.367 104.082C856.966 103.926 857.637 103.848 858.379 103.848H860.811ZM871.787 99.4336H872.871V109.814C872.871 110.732 872.695 111.52 872.344 112.178C871.999 112.835 871.507 113.34 870.869 113.691C870.238 114.043 869.492 114.219 868.633 114.219C868.197 114.219 867.747 114.15 867.285 114.014C866.829 113.883 866.396 113.682 865.986 113.408C865.583 113.141 865.238 112.809 864.951 112.412L865.605 111.699C866.035 112.22 866.494 112.601 866.982 112.842C867.471 113.089 867.998 113.213 868.564 113.213C869.235 113.213 869.801 113.079 870.264 112.812C870.732 112.546 871.087 112.161 871.328 111.66C871.576 111.159 871.699 110.557 871.699 109.854V101.758L871.787 99.4336ZM864.365 104.824V104.619C864.365 103.799 864.456 103.06 864.639 102.402C864.827 101.738 865.098 101.172 865.449 100.703C865.801 100.228 866.227 99.8665 866.729 99.6191C867.236 99.3652 867.809 99.2383 868.447 99.2383C869.059 99.2383 869.603 99.3392 870.078 99.541C870.553 99.7428 870.964 100.033 871.309 100.41C871.654 100.788 871.93 101.237 872.139 101.758C872.354 102.279 872.51 102.858 872.607 103.496V106.104C872.529 106.702 872.386 107.253 872.178 107.754C871.969 108.249 871.693 108.682 871.348 109.053C871.003 109.417 870.586 109.701 870.098 109.902C869.616 110.098 869.059 110.195 868.428 110.195C867.796 110.195 867.23 110.065 866.729 109.805C866.227 109.544 865.801 109.176 865.449 108.701C865.098 108.219 864.827 107.65 864.639 106.992C864.456 106.335 864.365 105.612 864.365 104.824ZM865.537 104.619V104.824C865.537 105.443 865.599 106.016 865.723 106.543C865.846 107.07 866.035 107.529 866.289 107.92C866.543 108.311 866.865 108.617 867.256 108.838C867.646 109.059 868.105 109.17 868.633 109.17C869.303 109.17 869.867 109.043 870.322 108.789C870.778 108.529 871.139 108.187 871.406 107.764C871.673 107.334 871.868 106.865 871.992 106.357V103.32C871.921 102.975 871.81 102.624 871.66 102.266C871.517 101.908 871.315 101.579 871.055 101.279C870.801 100.973 870.475 100.729 870.078 100.547C869.688 100.358 869.212 100.264 868.652 100.264C868.118 100.264 867.653 100.374 867.256 100.596C866.865 100.817 866.543 101.126 866.289 101.523C866.035 101.914 865.846 102.373 865.723 102.9C865.599 103.428 865.537 104.001 865.537 104.619ZM880.01 110.195C879.32 110.195 878.685 110.068 878.105 109.814C877.533 109.561 877.031 109.202 876.602 108.74C876.178 108.278 875.85 107.731 875.615 107.1C875.387 106.462 875.273 105.765 875.273 105.01V104.59C875.273 103.776 875.394 103.04 875.635 102.383C875.876 101.725 876.208 101.162 876.631 100.693C877.054 100.225 877.536 99.8665 878.076 99.6191C878.623 99.3652 879.196 99.2383 879.795 99.2383C880.465 99.2383 881.061 99.3587 881.582 99.5996C882.103 99.834 882.539 100.169 882.891 100.605C883.249 101.035 883.519 101.546 883.701 102.139C883.883 102.725 883.975 103.372 883.975 104.082V104.795H875.977V103.799H882.812V103.662C882.799 103.07 882.679 102.516 882.451 102.002C882.23 101.481 881.898 101.058 881.455 100.732C881.012 100.407 880.459 100.244 879.795 100.244C879.3 100.244 878.844 100.348 878.428 100.557C878.018 100.765 877.663 101.064 877.363 101.455C877.07 101.839 876.842 102.298 876.68 102.832C876.523 103.359 876.445 103.945 876.445 104.59V105.01C876.445 105.596 876.53 106.143 876.699 106.65C876.875 107.152 877.122 107.594 877.441 107.979C877.767 108.363 878.151 108.662 878.594 108.877C879.036 109.092 879.525 109.199 880.059 109.199C880.684 109.199 881.237 109.085 881.719 108.857C882.201 108.623 882.633 108.255 883.018 107.754L883.75 108.32C883.522 108.659 883.236 108.971 882.891 109.258C882.552 109.544 882.145 109.772 881.67 109.941C881.195 110.111 880.641 110.195 880.01 110.195ZM892.461 99.4336V110H891.299V99.4336H892.461ZM891.094 96.377C891.094 96.1556 891.162 95.9701 891.299 95.8203C891.442 95.6641 891.637 95.5859 891.885 95.5859C892.132 95.5859 892.327 95.6641 892.471 95.8203C892.62 95.9701 892.695 96.1556 892.695 96.377C892.695 96.5918 892.62 96.7773 892.471 96.9336C892.327 97.0833 892.132 97.1582 891.885 97.1582C891.637 97.1582 891.442 97.0833 891.299 96.9336C891.162 96.7773 891.094 96.5918 891.094 96.377ZM901.982 107.305C901.982 107.018 901.911 106.735 901.768 106.455C901.624 106.175 901.348 105.918 900.938 105.684C900.534 105.449 899.938 105.251 899.15 105.088C898.564 104.958 898.04 104.811 897.578 104.648C897.122 104.486 896.738 104.29 896.426 104.062C896.113 103.835 895.876 103.561 895.713 103.242C895.55 102.923 895.469 102.546 895.469 102.109C895.469 101.719 895.553 101.351 895.723 101.006C895.898 100.654 896.146 100.348 896.465 100.088C896.79 99.821 897.181 99.6126 897.637 99.4629C898.099 99.3132 898.617 99.2383 899.189 99.2383C900.003 99.2383 900.7 99.3783 901.279 99.6582C901.865 99.9316 902.311 100.306 902.617 100.781C902.93 101.257 903.086 101.794 903.086 102.393H901.924C901.924 102.028 901.816 101.683 901.602 101.357C901.393 101.032 901.084 100.765 900.674 100.557C900.27 100.348 899.775 100.244 899.189 100.244C898.584 100.244 898.092 100.335 897.715 100.518C897.337 100.7 897.061 100.931 896.885 101.211C896.715 101.491 896.631 101.781 896.631 102.08C896.631 102.314 896.667 102.529 896.738 102.725C896.816 102.913 896.953 103.089 897.148 103.252C897.35 103.415 897.637 103.568 898.008 103.711C898.379 103.854 898.861 103.994 899.453 104.131C900.306 104.32 901.003 104.551 901.543 104.824C902.09 105.091 902.493 105.423 902.754 105.82C903.014 106.211 903.145 106.686 903.145 107.246C903.145 107.682 903.053 108.083 902.871 108.447C902.689 108.805 902.425 109.115 902.08 109.375C901.742 109.635 901.331 109.837 900.85 109.98C900.374 110.124 899.84 110.195 899.248 110.195C898.356 110.195 897.601 110.049 896.982 109.756C896.37 109.456 895.905 109.066 895.586 108.584C895.273 108.096 895.117 107.578 895.117 107.031H896.279C896.318 107.578 896.491 108.011 896.797 108.33C897.103 108.643 897.477 108.864 897.92 108.994C898.369 109.124 898.812 109.189 899.248 109.189C899.847 109.189 900.348 109.102 900.752 108.926C901.156 108.75 901.462 108.519 901.67 108.232C901.878 107.946 901.982 107.637 901.982 107.305ZM917.627 99.4336H918.711V109.814C918.711 110.732 918.535 111.52 918.184 112.178C917.839 112.835 917.347 113.34 916.709 113.691C916.077 114.043 915.332 114.219 914.473 114.219C914.036 114.219 913.587 114.15 913.125 114.014C912.669 113.883 912.236 113.682 911.826 113.408C911.423 113.141 911.077 112.809 910.791 112.412L911.445 111.699C911.875 112.22 912.334 112.601 912.822 112.842C913.311 113.089 913.838 113.213 914.404 113.213C915.075 113.213 915.641 113.079 916.104 112.812C916.572 112.546 916.927 112.161 917.168 111.66C917.415 111.159 917.539 110.557 917.539 109.854V101.758L917.627 99.4336ZM910.205 104.824V104.619C910.205 103.799 910.296 103.06 910.479 102.402C910.667 101.738 910.938 101.172 911.289 100.703C911.641 100.228 912.067 99.8665 912.568 99.6191C913.076 99.3652 913.649 99.2383 914.287 99.2383C914.899 99.2383 915.443 99.3392 915.918 99.541C916.393 99.7428 916.803 100.033 917.148 100.41C917.493 100.788 917.77 101.237 917.979 101.758C918.193 102.279 918.35 102.858 918.447 103.496V106.104C918.369 106.702 918.226 107.253 918.018 107.754C917.809 108.249 917.533 108.682 917.188 109.053C916.842 109.417 916.426 109.701 915.938 109.902C915.456 110.098 914.899 110.195 914.268 110.195C913.636 110.195 913.07 110.065 912.568 109.805C912.067 109.544 911.641 109.176 911.289 108.701C910.938 108.219 910.667 107.65 910.479 106.992C910.296 106.335 910.205 105.612 910.205 104.824ZM911.377 104.619V104.824C911.377 105.443 911.439 106.016 911.562 106.543C911.686 107.07 911.875 107.529 912.129 107.92C912.383 108.311 912.705 108.617 913.096 108.838C913.486 109.059 913.945 109.17 914.473 109.17C915.143 109.17 915.706 109.043 916.162 108.789C916.618 108.529 916.979 108.187 917.246 107.764C917.513 107.334 917.708 106.865 917.832 106.357V103.32C917.76 102.975 917.65 102.624 917.5 102.266C917.357 101.908 917.155 101.579 916.895 101.279C916.641 100.973 916.315 100.729 915.918 100.547C915.527 100.358 915.052 100.264 914.492 100.264C913.958 100.264 913.493 100.374 913.096 100.596C912.705 100.817 912.383 101.126 912.129 101.523C911.875 101.914 911.686 102.373 911.562 102.9C911.439 103.428 911.377 104.001 911.377 104.619ZM925.85 110.195C925.16 110.195 924.525 110.068 923.945 109.814C923.372 109.561 922.871 109.202 922.441 108.74C922.018 108.278 921.689 107.731 921.455 107.1C921.227 106.462 921.113 105.765 921.113 105.01V104.59C921.113 103.776 921.234 103.04 921.475 102.383C921.715 101.725 922.048 101.162 922.471 100.693C922.894 100.225 923.376 99.8665 923.916 99.6191C924.463 99.3652 925.036 99.2383 925.635 99.2383C926.305 99.2383 926.901 99.3587 927.422 99.5996C927.943 99.834 928.379 100.169 928.73 100.605C929.089 101.035 929.359 101.546 929.541 102.139C929.723 102.725 929.814 103.372 929.814 104.082V104.795H921.816V103.799H928.652V103.662C928.639 103.07 928.519 102.516 928.291 102.002C928.07 101.481 927.738 101.058 927.295 100.732C926.852 100.407 926.299 100.244 925.635 100.244C925.14 100.244 924.684 100.348 924.268 100.557C923.857 100.765 923.503 101.064 923.203 101.455C922.91 101.839 922.682 102.298 922.52 102.832C922.363 103.359 922.285 103.945 922.285 104.59V105.01C922.285 105.596 922.37 106.143 922.539 106.65C922.715 107.152 922.962 107.594 923.281 107.979C923.607 108.363 923.991 108.662 924.434 108.877C924.876 109.092 925.365 109.199 925.898 109.199C926.523 109.199 927.077 109.085 927.559 108.857C928.04 108.623 928.473 108.255 928.857 107.754L929.59 108.32C929.362 108.659 929.076 108.971 928.73 109.258C928.392 109.544 927.985 109.772 927.51 109.941C927.035 110.111 926.481 110.195 925.85 110.195ZM933.281 101.689V110H932.119V99.4336H933.232L933.281 101.689ZM933.018 104.062L932.5 103.77C932.539 103.145 932.666 102.559 932.881 102.012C933.096 101.465 933.385 100.983 933.75 100.566C934.121 100.15 934.554 99.8242 935.049 99.5898C935.55 99.3555 936.104 99.2383 936.709 99.2383C937.236 99.2383 937.708 99.3099 938.125 99.4531C938.542 99.5964 938.896 99.8242 939.189 100.137C939.482 100.449 939.704 100.85 939.854 101.338C940.01 101.826 940.088 102.422 940.088 103.125V110H938.916V103.115C938.916 102.386 938.815 101.816 938.613 101.406C938.411 100.99 938.125 100.693 937.754 100.518C937.383 100.342 936.943 100.254 936.436 100.254C935.876 100.254 935.384 100.378 934.961 100.625C934.544 100.866 934.193 101.182 933.906 101.572C933.626 101.956 933.411 102.37 933.262 102.812C933.112 103.249 933.031 103.665 933.018 104.062ZM947.197 110.195C946.507 110.195 945.872 110.068 945.293 109.814C944.72 109.561 944.219 109.202 943.789 108.74C943.366 108.278 943.037 107.731 942.803 107.1C942.575 106.462 942.461 105.765 942.461 105.01V104.59C942.461 103.776 942.581 103.04 942.822 102.383C943.063 101.725 943.395 101.162 943.818 100.693C944.242 100.225 944.723 99.8665 945.264 99.6191C945.811 99.3652 946.383 99.2383 946.982 99.2383C947.653 99.2383 948.249 99.3587 948.77 99.5996C949.29 99.834 949.727 100.169 950.078 100.605C950.436 101.035 950.706 101.546 950.889 102.139C951.071 102.725 951.162 103.372 951.162 104.082V104.795H943.164V103.799H950V103.662C949.987 103.07 949.867 102.516 949.639 102.002C949.417 101.481 949.085 101.058 948.643 100.732C948.2 100.407 947.646 100.244 946.982 100.244C946.488 100.244 946.032 100.348 945.615 100.557C945.205 100.765 944.85 101.064 944.551 101.455C944.258 101.839 944.03 102.298 943.867 102.832C943.711 103.359 943.633 103.945 943.633 104.59V105.01C943.633 105.596 943.717 106.143 943.887 106.65C944.062 107.152 944.31 107.594 944.629 107.979C944.954 108.363 945.339 108.662 945.781 108.877C946.224 109.092 946.712 109.199 947.246 109.199C947.871 109.199 948.424 109.085 948.906 108.857C949.388 108.623 949.821 108.255 950.205 107.754L950.938 108.32C950.71 108.659 950.423 108.971 950.078 109.258C949.74 109.544 949.333 109.772 948.857 109.941C948.382 110.111 947.829 110.195 947.197 110.195ZM954.629 101.182V110H953.467V99.4336H954.6L954.629 101.182ZM958.369 99.3555L958.34 100.43C958.21 100.41 958.083 100.394 957.959 100.381C957.835 100.368 957.702 100.361 957.559 100.361C957.051 100.361 956.605 100.456 956.221 100.645C955.843 100.827 955.524 101.084 955.264 101.416C955.003 101.742 954.805 102.126 954.668 102.568C954.531 103.005 954.453 103.473 954.434 103.975L954.004 104.141C954.004 103.451 954.076 102.809 954.219 102.217C954.362 101.624 954.58 101.107 954.873 100.664C955.173 100.215 955.547 99.8665 955.996 99.6191C956.452 99.3652 956.986 99.2383 957.598 99.2383C957.747 99.2383 957.894 99.2513 958.037 99.2773C958.187 99.2969 958.298 99.3229 958.369 99.3555ZM966.24 108.105V102.656C966.24 102.155 966.136 101.722 965.928 101.357C965.719 100.993 965.413 100.713 965.01 100.518C964.606 100.322 964.108 100.225 963.516 100.225C962.969 100.225 962.48 100.322 962.051 100.518C961.628 100.706 961.292 100.964 961.045 101.289C960.804 101.608 960.684 101.963 960.684 102.354L959.512 102.344C959.512 101.947 959.609 101.562 959.805 101.191C960 100.82 960.277 100.488 960.635 100.195C960.993 99.9023 961.419 99.6712 961.914 99.502C962.415 99.3262 962.965 99.2383 963.564 99.2383C964.32 99.2383 964.984 99.3652 965.557 99.6191C966.136 99.873 966.589 100.254 966.914 100.762C967.24 101.27 967.402 101.908 967.402 102.676V107.783C967.402 108.148 967.428 108.525 967.48 108.916C967.539 109.307 967.62 109.629 967.725 109.883V110H966.484C966.406 109.766 966.344 109.473 966.299 109.121C966.26 108.763 966.24 108.424 966.24 108.105ZM966.514 103.848L966.533 104.746H964.238C963.639 104.746 963.102 104.801 962.627 104.912C962.158 105.016 961.761 105.173 961.436 105.381C961.11 105.583 960.859 105.827 960.684 106.113C960.514 106.4 960.43 106.725 960.43 107.09C960.43 107.467 960.524 107.812 960.713 108.125C960.908 108.438 961.182 108.688 961.533 108.877C961.891 109.059 962.314 109.15 962.803 109.15C963.454 109.15 964.027 109.03 964.521 108.789C965.023 108.548 965.436 108.232 965.762 107.842C966.087 107.451 966.305 107.025 966.416 106.562L966.924 107.236C966.839 107.562 966.683 107.897 966.455 108.242C966.234 108.581 965.944 108.9 965.586 109.199C965.228 109.492 964.805 109.733 964.316 109.922C963.835 110.104 963.288 110.195 962.676 110.195C961.986 110.195 961.383 110.065 960.869 109.805C960.361 109.544 959.964 109.189 959.678 108.74C959.398 108.285 959.258 107.77 959.258 107.197C959.258 106.676 959.368 106.211 959.59 105.801C959.811 105.384 960.13 105.033 960.547 104.746C960.97 104.453 961.478 104.232 962.07 104.082C962.669 103.926 963.34 103.848 964.082 103.848H966.514ZM974.531 99.4336V100.391H969.238V99.4336H974.531ZM971.182 96.7188H972.344V107.432C972.344 107.92 972.409 108.288 972.539 108.535C972.669 108.783 972.839 108.949 973.047 109.033C973.255 109.118 973.48 109.16 973.721 109.16C973.896 109.16 974.066 109.15 974.229 109.131C974.391 109.105 974.538 109.079 974.668 109.053L974.717 110.039C974.574 110.085 974.388 110.12 974.16 110.146C973.932 110.179 973.704 110.195 973.477 110.195C973.027 110.195 972.63 110.114 972.285 109.951C971.94 109.782 971.67 109.495 971.475 109.092C971.279 108.682 971.182 108.125 971.182 107.422V96.7188ZM981.064 110.195C980.374 110.195 979.74 110.068 979.16 109.814C978.587 109.561 978.086 109.202 977.656 108.74C977.233 108.278 976.904 107.731 976.67 107.1C976.442 106.462 976.328 105.765 976.328 105.01V104.59C976.328 103.776 976.449 103.04 976.689 102.383C976.93 101.725 977.262 101.162 977.686 100.693C978.109 100.225 978.59 99.8665 979.131 99.6191C979.678 99.3652 980.251 99.2383 980.85 99.2383C981.52 99.2383 982.116 99.3587 982.637 99.5996C983.158 99.834 983.594 100.169 983.945 100.605C984.303 101.035 984.574 101.546 984.756 102.139C984.938 102.725 985.029 103.372 985.029 104.082V104.795H977.031V103.799H983.867V103.662C983.854 103.07 983.734 102.516 983.506 102.002C983.285 101.481 982.952 101.058 982.51 100.732C982.067 100.407 981.514 100.244 980.85 100.244C980.355 100.244 979.899 100.348 979.482 100.557C979.072 100.765 978.717 101.064 978.418 101.455C978.125 101.839 977.897 102.298 977.734 102.832C977.578 103.359 977.5 103.945 977.5 104.59V105.01C977.5 105.596 977.585 106.143 977.754 106.65C977.93 107.152 978.177 107.594 978.496 107.979C978.822 108.363 979.206 108.662 979.648 108.877C980.091 109.092 980.579 109.199 981.113 109.199C981.738 109.199 982.292 109.085 982.773 108.857C983.255 108.623 983.688 108.255 984.072 107.754L984.805 108.32C984.577 108.659 984.29 108.971 983.945 109.258C983.607 109.544 983.2 109.772 982.725 109.941C982.249 110.111 981.696 110.195 981.064 110.195ZM994.199 107.949V95H995.371V110H994.277L994.199 107.949ZM986.865 104.824V104.619C986.865 103.799 986.96 103.06 987.148 102.402C987.337 101.738 987.607 101.172 987.959 100.703C988.317 100.228 988.747 99.8665 989.248 99.6191C989.749 99.3652 990.316 99.2383 990.947 99.2383C991.566 99.2383 992.113 99.3392 992.588 99.541C993.063 99.7428 993.47 100.033 993.809 100.41C994.154 100.788 994.43 101.237 994.639 101.758C994.854 102.279 995.01 102.858 995.107 103.496V106.104C995.029 106.702 994.886 107.253 994.678 107.754C994.469 108.249 994.193 108.682 993.848 109.053C993.503 109.417 993.086 109.701 992.598 109.902C992.116 110.098 991.559 110.195 990.928 110.195C990.303 110.195 989.74 110.065 989.238 109.805C988.737 109.544 988.311 109.176 987.959 108.701C987.607 108.219 987.337 107.65 987.148 106.992C986.96 106.335 986.865 105.612 986.865 104.824ZM988.037 104.619V104.824C988.037 105.443 988.099 106.016 988.223 106.543C988.346 107.07 988.535 107.529 988.789 107.92C989.043 108.311 989.365 108.617 989.756 108.838C990.146 109.059 990.609 109.17 991.143 109.17C991.813 109.17 992.376 109.043 992.832 108.789C993.288 108.529 993.652 108.187 993.926 107.764C994.199 107.334 994.398 106.865 994.521 106.357V103.32C994.443 102.975 994.329 102.624 994.18 102.266C994.03 101.908 993.825 101.579 993.564 101.279C993.311 100.973 992.985 100.729 992.588 100.547C992.197 100.358 991.722 100.264 991.162 100.264C990.622 100.264 990.156 100.374 989.766 100.596C989.375 100.817 989.049 101.126 988.789 101.523C988.535 101.914 988.346 102.373 988.223 102.9C988.099 103.428 988.037 104.001 988.037 104.619ZM1003.31 95H1004.48V107.949L1004.4 110H1003.31V95ZM1011.84 104.619V104.824C1011.84 105.612 1011.74 106.335 1011.56 106.992C1011.38 107.65 1011.12 108.219 1010.77 108.701C1010.43 109.176 1010 109.544 1009.5 109.805C1009.01 110.065 1008.44 110.195 1007.79 110.195C1007.16 110.195 1006.6 110.098 1006.11 109.902C1005.62 109.701 1005.21 109.417 1004.86 109.053C1004.52 108.682 1004.24 108.249 1004.03 107.754C1003.82 107.253 1003.68 106.702 1003.59 106.104V103.496C1003.69 102.858 1003.85 102.279 1004.06 101.758C1004.28 101.237 1004.55 100.788 1004.89 100.41C1005.24 100.033 1005.65 99.7428 1006.12 99.541C1006.6 99.3392 1007.15 99.2383 1007.77 99.2383C1008.42 99.2383 1008.99 99.3652 1009.49 99.6191C1010 99.8665 1010.43 100.228 1010.77 100.703C1011.12 101.172 1011.38 101.738 1011.56 102.402C1011.74 103.06 1011.84 103.799 1011.84 104.619ZM1010.65 104.824V104.619C1010.65 104.001 1010.6 103.428 1010.48 102.9C1010.36 102.373 1010.18 101.914 1009.92 101.523C1009.67 101.126 1009.36 100.817 1008.96 100.596C1008.57 100.374 1008.11 100.264 1007.56 100.264C1007 100.264 1006.52 100.358 1006.12 100.547C1005.73 100.729 1005.41 100.973 1005.15 101.279C1004.89 101.579 1004.69 101.908 1004.54 102.266C1004.39 102.624 1004.28 102.975 1004.21 103.32V106.357C1004.32 106.846 1004.51 107.305 1004.79 107.734C1005.06 108.164 1005.43 108.512 1005.89 108.779C1006.35 109.04 1006.91 109.17 1007.58 109.17C1008.11 109.17 1008.57 109.059 1008.96 108.838C1009.35 108.617 1009.66 108.311 1009.91 107.92C1010.17 107.529 1010.35 107.07 1010.47 106.543C1010.59 106.016 1010.65 105.443 1010.65 104.824ZM1017.44 108.945L1020.73 99.4336H1021.99L1017.52 111.699C1017.43 111.94 1017.31 112.207 1017.17 112.5C1017.03 112.793 1016.85 113.073 1016.62 113.34C1016.4 113.613 1016.12 113.835 1015.78 114.004C1015.45 114.18 1015.04 114.268 1014.56 114.268C1014.44 114.268 1014.28 114.251 1014.08 114.219C1013.89 114.193 1013.76 114.167 1013.67 114.141L1013.66 113.154C1013.73 113.174 1013.84 113.19 1013.97 113.203C1014.11 113.216 1014.21 113.223 1014.26 113.223C1014.68 113.223 1015.04 113.151 1015.32 113.008C1015.62 112.865 1015.86 112.65 1016.05 112.363C1016.25 112.083 1016.42 111.732 1016.57 111.309L1017.44 108.945ZM1014.37 99.4336L1017.73 108.506L1018.05 109.727L1017.2 110.205L1013.1 99.4336H1014.37ZM1033.64 96.6309L1028.72 110H1027.47L1032.84 95.7812H1033.71L1033.64 96.6309ZM1038.12 110L1033.18 96.6309L1033.12 95.7812H1033.98L1039.37 110H1038.12ZM1037.24 104.98V106.016H1029.69V104.98H1037.24ZM1042.94 95.7812V110H1041.74V95.7812H1042.94Z" fill="white" fill-opacity="0.3"/>
<path d="M719.297 82C716.969 82 714.98 81.1758 713.332 79.5273C711.684 77.8789 710.859 75.8906 710.859 73.5625C710.859 71.2344 711.684 69.2461 713.332 67.5977C714.98 65.9492 716.969 65.125 719.297 65.125C721.625 65.125 723.613 65.9492 725.262 67.5977C726.91 69.2461 727.734 71.2344 727.734 73.5625C727.734 75.8906 726.91 77.8789 725.262 79.5273C723.613 81.1758 721.625 82 719.297 82ZM719.297 79.1875C720.852 79.1875 722.176 78.6406 723.27 77.5469C724.371 76.4453 724.922 75.1172 724.922 73.5625C724.922 72.0078 724.371 70.6836 723.27 69.5898C722.176 68.4883 720.852 67.9375 719.297 67.9375C717.742 67.9375 716.414 68.4883 715.312 69.5898C714.219 70.6836 713.672 72.0078 713.672 73.5625C713.672 75.1172 714.219 76.4453 715.312 77.5469C716.414 78.6406 717.742 79.1875 719.297 79.1875ZM736.559 73.5625L743.203 82H739.629L734.766 75.8242L729.902 82H726.328L732.984 73.5625L726.328 65.125H729.902L734.766 71.3008L739.629 65.125H743.203L736.559 73.5625ZM750.234 82C747.906 82 745.918 81.1758 744.27 79.5273C742.621 77.8789 741.797 75.8906 741.797 73.5625C741.797 71.2344 742.621 69.2461 744.27 67.5977C745.918 65.9492 747.906 65.125 750.234 65.125C752.562 65.125 754.551 65.9492 756.199 67.5977C757.848 69.2461 758.672 71.2344 758.672 73.5625C758.672 75.8906 757.848 77.8789 756.199 79.5273C754.551 81.1758 752.562 82 750.234 82ZM750.234 79.1875C751.789 79.1875 753.113 78.6406 754.207 77.5469C755.309 76.4453 755.859 75.1172 755.859 73.5625C755.859 72.0078 755.309 70.6836 754.207 69.5898C753.113 68.4883 751.789 67.9375 750.234 67.9375C748.68 67.9375 747.352 68.4883 746.25 69.5898C745.156 70.6836 744.609 72.0078 744.609 73.5625C744.609 75.1172 745.156 76.4453 746.25 77.5469C747.352 78.6406 748.68 79.1875 750.234 79.1875ZM775.547 65.125V67.9375H768.516V82H765.703V67.9375H758.672V65.125H775.547ZM775.547 73.5625C775.547 71.2344 776.371 69.2461 778.02 67.5977C779.668 65.9492 781.656 65.125 783.984 65.125C786.312 65.125 788.301 65.9492 789.949 67.5977C791.598 69.2461 792.422 71.2344 792.422 73.5625V82H789.609V79.1875H778.359V82H775.547V73.5625ZM789.609 76.375V73.5625C789.609 72.0078 789.059 70.6836 787.957 69.5898C786.863 68.4883 785.539 67.9375 783.984 67.9375C782.43 67.9375 781.102 68.4883 780 69.5898C778.906 70.6836 778.359 72.0078 778.359 73.5625V76.375H789.609ZM805.781 82C804.422 82 803.262 81.5195 802.301 80.5586C801.34 79.5977 800.859 78.4375 800.859 77.0781H803.672C803.672 77.6641 803.875 78.1641 804.281 78.5781C804.695 78.9844 805.195 79.1875 805.781 79.1875H807.188C807.773 79.1875 808.27 78.9844 808.676 78.5781C809.09 78.1641 809.297 77.6641 809.297 77.0781C809.297 76.4922 809.09 75.9961 808.676 75.5898C808.27 75.1758 807.773 74.9688 807.188 74.9688H803.672V72.1562H805.781C806.367 72.1562 806.863 71.9531 807.27 71.5469C807.684 71.1328 807.891 70.6328 807.891 70.0469C807.891 69.4609 807.684 68.9648 807.27 68.5586C806.863 68.1445 806.367 67.9375 805.781 67.9375C805.195 67.9375 804.695 68.1445 804.281 68.5586C803.875 68.9648 803.672 69.4609 803.672 70.0469H800.859C800.859 68.6875 801.34 67.5273 802.301 66.5664C803.262 65.6055 804.422 65.125 805.781 65.125C807.141 65.125 808.301 65.6055 809.262 66.5664C810.223 67.5273 810.703 68.6875 810.703 70.0469C810.703 71.125 810.402 72.0742 809.801 72.8945C810.105 73.0898 810.395 73.3242 810.668 73.5977C811.629 74.5586 812.109 75.7188 812.109 77.0781C812.109 78.4375 811.629 79.5977 810.668 80.5586C809.707 81.5195 808.547 82 807.188 82H805.781ZM813.516 73.5625C813.516 71.2344 814.34 69.2461 815.988 67.5977C817.637 65.9492 819.625 65.125 821.953 65.125C824.281 65.125 826.27 65.9492 827.918 67.5977C829.566 69.2461 830.391 71.2344 830.391 73.5625V82H827.578V79.1875H816.328V82H813.516V73.5625ZM827.578 76.375V73.5625C827.578 72.0078 827.027 70.6836 825.926 69.5898C824.832 68.4883 823.508 67.9375 821.953 67.9375C820.398 67.9375 819.07 68.4883 817.969 69.5898C816.875 70.6836 816.328 72.0078 816.328 73.5625V76.375H827.578ZM855.703 65.125V67.9375H848.672V82H845.859V67.9375H838.828V65.125H855.703ZM873.984 65.125V67.9375H859.922V72.1562H871.172V74.9688H859.922V79.1875H873.984V82H857.109V65.125H873.984ZM885.621 73.5625L892.266 82H888.691L883.828 75.8242L878.965 82H875.391L882.047 73.5625L875.391 65.125H878.965L883.828 71.3008L888.691 65.125H892.266L885.621 73.5625ZM896.484 74.9688V82H893.672V65.125H896.484V72.1562H907.734V65.125H910.547V82H907.734V74.9688H896.484ZM920.391 82C918.062 82 916.074 81.1758 914.426 79.5273C912.777 77.8789 911.953 75.8906 911.953 73.5625C911.953 71.2344 912.777 69.2461 914.426 67.5977C916.074 65.9492 918.062 65.125 920.391 65.125C922.719 65.125 924.707 65.9492 926.355 67.5977C928.004 69.2461 928.828 71.2344 928.828 73.5625C928.828 75.8906 928.004 77.8789 926.355 79.5273C924.707 81.1758 922.719 82 920.391 82ZM920.391 79.1875C921.945 79.1875 923.27 78.6406 924.363 77.5469C925.465 76.4453 926.016 75.1172 926.016 73.5625C926.016 72.0078 925.465 70.6836 924.363 69.5898C923.27 68.4883 921.945 67.9375 920.391 67.9375C918.836 67.9375 917.508 68.4883 916.406 69.5898C915.312 70.6836 914.766 72.0078 914.766 73.5625C914.766 75.1172 915.312 76.4453 916.406 77.5469C917.508 78.6406 918.836 79.1875 920.391 79.1875ZM940.078 82H937.266V67.9375H933.75V77.0781C933.75 78.4375 933.27 79.5977 932.309 80.5586C931.348 81.5195 930.188 82 928.828 82V79.1875C929.414 79.1875 929.91 78.9844 930.316 78.5781C930.73 78.1641 930.938 77.6641 930.938 77.0781V65.125H940.078V82ZM949.922 82C947.594 82 945.605 81.1758 943.957 79.5273C942.309 77.8789 941.484 75.8906 941.484 73.5625C941.484 71.2344 942.309 69.2461 943.957 67.5977C945.605 65.9492 947.594 65.125 949.922 65.125C952.25 65.125 954.238 65.9492 955.887 67.5977C957.535 69.2461 958.359 71.2344 958.359 73.5625C958.359 75.8906 957.535 77.8789 955.887 79.5273C954.238 81.1758 952.25 82 949.922 82ZM949.922 79.1875C951.477 79.1875 952.801 78.6406 953.895 77.5469C954.996 76.4453 955.547 75.1172 955.547 73.5625C955.547 72.0078 954.996 70.6836 953.895 69.5898C952.801 68.4883 951.477 67.9375 949.922 67.9375C948.367 67.9375 947.039 68.4883 945.938 69.5898C944.844 70.6836 944.297 72.0078 944.297 73.5625C944.297 75.1172 944.844 76.4453 945.938 77.5469C947.039 78.6406 948.367 79.1875 949.922 79.1875ZM976.641 65.125V67.9375H962.578V82H959.766V65.125H976.641ZM994.922 65.125V82H992.109V68.6875L981.621 82H978.047V65.125H980.859V78.4375L991.348 65.125H994.922ZM1001.25 67.9375C1000.66 67.9375 1000.16 68.1445 999.75 68.5586C999.344 68.9648 999.141 69.4609 999.141 70.0469V71.4531C999.141 72.0391 999.344 72.5391 999.75 72.9531C1000.16 73.3594 1000.66 73.5625 1001.25 73.5625H1004.77V67.9375H1001.25ZM996.328 70.0469C996.328 68.6875 996.809 67.5273 997.77 66.5664C998.73 65.6055 999.891 65.125 1001.25 65.125H1007.58V82H1004.77V76.375H1004.34L999.902 82H996.328L1000.78 76.3516C999.625 76.2578 998.621 75.7852 997.77 74.9336C996.809 73.9727 996.328 72.8125 996.328 71.4531V70.0469ZM1011.8 68.6875V82H1008.98V65.125H1012.56L1017.42 71.3008L1022.29 65.125H1025.86V82H1023.05V68.6992L1019.21 73.5625L1017.42 75.8242L1015.64 73.5625L1011.8 68.6875ZM1044.14 65.125V82H1041.33V68.6875L1030.84 82H1027.27V65.125H1030.08V78.4375L1040.57 65.125H1044.14Z" fill="white"/>
</g>
<defs>
<clipPath id="clip0_2210_3935">
<rect width="1080" height="1080" fill="white"/>
</clipPath>
</defs>
</svg>
